# xmcd
#
# Track frame offsets: 
#        150
#        12274
#        28196
#        40729
#        56241
#        71256
#        87213
#        104975
#        120886
#        134305
#        148644
#        164159
#        179234
#        196649
#        210156
#        221665
#        235469
#        249540
#        264029
#        279295
#        293645
#        307473
#        323650
#        337071
#
# Disc length: 4670 seconds
#
# Revision: 1
# Processed by: cddbd v1.5.2PL0 Copyright (c) Steve Scherf et al.
# Submitted via: ExactAudioCopyFreeDBPlugin 1.0
#
DISCID=6e123c18
DTITLE=C.S. Lewis - Mere Christianity
DYEAR=2006
DGENRE=Audio Book
TTITLE0=Book 2 Chapter 2d
TTITLE1=Book 2 Chapter 3a
TTITLE2=Book 2 Chapter 3b
TTITLE3=Book 2 Chapter 3c
TTITLE4=Book 2 Chapter 4a
TTITLE5=Book 2 Chapter 4b
TTITLE6=Book 2 Chapter 4c
TTITLE7=Book 2 Chapter 5a
TTITLE8=Book 2 Chapter 5b
TTITLE9=Book 2 Chapter 5c
TTITLE10=Book 3 Chapter 1a
TTITLE11=Book 3 Chapter 1b
TTITLE12=Book 3 Chapter 1c
TTITLE13=Book 3 Chapter 2a
TTITLE14=Book 3 Chapter 2b
TTITLE15=Book 3 Chapter 2c
TTITLE16=Book 3 Chapter 3a
TTITLE17=Book 3 Chapter 3b
TTITLE18=Book 3 Chapter 3c
TTITLE19=Book 3 Chapter 4a
TTITLE20=Book 3 Chapter 4b
TTITLE21=Book 3 Chapter 4c
TTITLE22=Book 3 Chapter 5a
TTITLE23=Book 3 Chapter 5b
EXTD=
EXTT0=
EXTT1=
EXTT2=
EXTT3=
EXTT4=
EXTT5=
EXTT6=
EXTT7=
EXTT8=
EXTT9=
EXTT10=
EXTT11=
EXTT12=
EXTT13=
EXTT14=
EXTT15=
EXTT16=
EXTT17=
EXTT18=
EXTT19=
EXTT20=
EXTT21=
EXTT22=
EXTT23=
PLAYORDER=
